<?xml version="1.0" encoding="UTF-8" standalone="no"?>
<!-- Created with Inkscape (http://www.inkscape.org/) -->

<svg
   width="256"
   height="256"
   viewBox="0 0 67.733332 67.733335"
   version="1.1"
   id="svg5"
   inkscape:version="1.1.2 (0a00cf5339, 2022-02-04)"
   sodipodi:docname="icondrawing.svg"
   xmlns:inkscape="http://www.inkscape.org/namespaces/inkscape"
   xmlns:sodipodi="http://sodipodi.sourceforge.net/DTD/sodipodi-0.dtd"
   xmlns:xlink="http://www.w3.org/1999/xlink"
   xmlns="http://www.w3.org/2000/svg"
   xmlns:svg="http://www.w3.org/2000/svg">
  <sodipodi:namedview
     id="namedview7"
     pagecolor="#ffffff"
     bordercolor="#666666"
     borderopacity="1.0"
     inkscape:pageshadow="2"
     inkscape:pageopacity="0.0"
     inkscape:pagecheckerboard="0"
     inkscape:document-units="mm"
     showgrid="false"
     units="px"
     width="256px"
     showguides="true"
     inkscape:guide-bbox="true"
     inkscape:zoom="1.2596661"
     inkscape:cx="160.75689"
     inkscape:cy="136.14719"
     inkscape:window-width="1920"
     inkscape:window-height="953"
     inkscape:window-x="0"
     inkscape:window-y="28"
     inkscape:window-maximized="1"
     inkscape:current-layer="layer2"
     inkscape:snap-global="false">
    <sodipodi:guide
       position="47.230131,5.205391"
       orientation="1,0"
       id="guide2900" />
  </sodipodi:namedview>
  <defs
     id="defs2">
    <linearGradient
       inkscape:collect="always"
       id="linearGradient9452-6">
      <stop
         style="stop-color:#1a1a1a;stop-opacity:1"
         offset="0"
         id="stop9448" />
      <stop
         style="stop-color:#595959;stop-opacity:1;"
         offset="0.5"
         id="stop9937" />
      <stop
         style="stop-color:#ffffff;stop-opacity:1"
         offset="1"
         id="stop9450" />
    </linearGradient>
    <linearGradient
       id="linearGradient5445-5-3"
       inkscape:swatch="gradient">
      <stop
         style="stop-color:#333333;stop-opacity:1"
         offset="0"
         id="stop7249" />
      <stop
         style="stop-color:#ff0000;stop-opacity:0;"
         offset="1"
         id="stop7251" />
    </linearGradient>
    <linearGradient
       id="linearGradient5445-5-3-5"
       inkscape:swatch="gradient">
      <stop
         style="stop-color:#333333;stop-opacity:1"
         offset="0"
         id="stop7104" />
      <stop
         style="stop-color:#ffffff;stop-opacity:1"
         offset="0.20210275"
         id="stop7446" />
      <stop
         style="stop-color:#ffffff;stop-opacity:1"
         offset="0.37295347"
         id="stop8748" />
      <stop
         style="stop-color:#1a1a1a;stop-opacity:1"
         offset="1"
         id="stop7106" />
    </linearGradient>
    <linearGradient
       inkscape:collect="always"
       xlink:href="#linearGradient5445-5-3-5"
       id="linearGradient7832"
       gradientUnits="userSpaceOnUse"
       x1="33.883392"
       y1="53.046318"
       x2="33.921852"
       y2="21.739391" />
    <radialGradient
       inkscape:collect="always"
       xlink:href="#linearGradient9452-6"
       id="radialGradient9585"
       gradientUnits="userSpaceOnUse"
       gradientTransform="matrix(-3.7073214,1.951272,-0.75177906,-2.4215312,-0.53290487,169.87044)"
       cx="-8.4245148"
       cy="48.531532"
       fx="-8.4245148"
       fy="48.531532"
       r="10.831301" />
    <filter
       inkscape:collect="always"
       style="color-interpolation-filters:sRGB"
       id="filter11491"
       x="-0.060264873"
       y="-0.046830053"
       width="1.1205297"
       height="1.0936601">
      <feGaussianBlur
         inkscape:collect="always"
         stdDeviation="0.54395582"
         id="feGaussianBlur11493" />
    </filter>
    <filter
       inkscape:collect="always"
       style="color-interpolation-filters:sRGB"
       id="filter11495"
       x="-0.0022074763"
       y="-0.0020649515"
       width="1.004415"
       height="1.0041299">
      <feGaussianBlur
         inkscape:collect="always"
         stdDeviation="0.03008984"
         id="feGaussianBlur11497" />
    </filter>
  </defs>
  <g
     inkscape:groupmode="layer"
     id="layer2"
     inkscape:label="vector"
     style="display:inline;opacity:1">
    <path
       style="fill:#000000;fill-opacity:1;stroke:none;stroke-width:0.264583px;stroke-linecap:butt;stroke-linejoin:miter;stroke-opacity:1"
       d="m 46.944483,4.0958275 c 0,0 -3.408257,-0.8710693 -5.14604,-0.8401698 -1.606261,0.028561 -3.260634,0.286608 -4.725953,0.9451908 -1.641231,0.7376459 -3.210791,1.8278771 -4.305872,3.2556577 -0.850597,1.1090191 -1.30782,2.5139671 -1.575318,3.8857848 -0.167501,0.858998 -0.238848,1.783577 0,2.625531 0.527632,1.859937 3.045616,4.935997 3.045616,4.935997 0,0 -0.892263,-2.844441 -0.840168,-4.30587 0.150818,-2.958768 0.52229,-4.53658 2.310463,-6.5113154 0.765294,-0.8446015 2.363854,-2.2637929 3.780766,-3.0456153 1.134076,-0.6257595 2.390359,-1.1005957 3.675743,-1.2602545 1.254979,-0.1558821 3.780763,0.3150637 3.780763,0.3150637 z"
       id="path930"
       sodipodi:nodetypes="caaaaacccaac" />
    <path
       style="display:inline;opacity:1;fill:url(#linearGradient7832);fill-opacity:1;stroke:none;stroke-width:0.264583px;stroke-linecap:butt;stroke-linejoin:miter;stroke-opacity:1;filter:url(#filter11495)"
       d="m 26.990452,18.378713 -3.255657,1.102722 -3.465701,2.730552 -1.680339,4.358381 -0.84017,7.403994 2.678041,8.139144 5.618635,10.134547 1.312766,0.420087 1.732849,-0.05251 2.047915,-1.312764 6.668847,1.155234 1.207743,0.577615 1.470298,-0.157531 1.78536,-0.367575 4.959091,-9.766972 3.232563,-8.506719 v -4.043317 l -0.630127,-4.778465 -2.602436,-3.518211 -1.33586,-2.415488 -6.616335,-1.365275 -3.531338,0.735148 -0.932064,0.17066 -0.958318,0.01969 -1.319329,-0.13784 -1.096161,-0.288809 -1.16836,-0.236297 -1.824744,-0.315064 z"
       id="path4785" />
    <ellipse
       style="opacity:0.85542169;mix-blend-mode:normal;fill:url(#radialGradient9585);fill-opacity:1;stroke:none;stroke-width:0.293205;filter:url(#filter11491)"
       id="path9366"
       cx="-7.779429"
       cy="45.383377"
       rx="10.831301"
       ry="13.938634"
       transform="matrix(0.5195497,-0.85444023,0.84113825,0.54082016,0.29704486,-0.14852243)" />
    <path
       id="path932"
       style="fill:#000000;fill-opacity:1;stroke:none;stroke-width:0.999999px;stroke-linecap:butt;stroke-linejoin:miter;stroke-opacity:1"
       d="m 100.87891,65.455078 c -1.568847,0.02144 -3.139056,0.148993 -4.677738,0.433594 -4.379524,0.810096 -8.777495,1.956813 -12.771484,3.927734 -6.33213,3.124728 -12.184563,7.373881 -17.261719,12.28125 -1.523732,1.472776 -2.782444,3.225667 -3.859375,5.050782 -1.921338,3.256168 -3.363291,6.798576 -4.560547,10.384765 -0.874934,2.620727 -1.488266,5.337427 -1.894531,8.070317 -0.906403,6.09723 -1.375612,12.29158 -1.19336,18.45312 0.12892,4.35844 0.781187,8.70259 1.615235,12.98242 1.801477,9.24412 3.97464,18.48233 7.296875,27.29492 2.863317,7.59526 6.802707,14.76146 10.80664,21.82227 1.193715,2.10508 2.446499,4.19133 3.929688,6.10352 3.479316,4.48567 7.093406,9.00717 11.576172,12.49023 1.933923,1.50264 4.325343,2.30399 6.457031,3.50977 2.007636,1.1356 4.114643,2.12789 5.962893,3.50781 0.38455,0.28709 0.80156,0.57349 1.05273,0.98242 0.48428,0.78843 0.6483,1.74897 0.77149,2.66602 0.21176,1.57648 0.18446,3.20137 -0.0703,4.77148 -0.36185,2.22975 -2.04687,6.45898 -2.04687,6.45898 l 3.57226,-2.77734 c 0,0 0.0596,-5.59192 -0.39648,-8.33594 -1.06921,-6.43298 -2.93353,-12.77129 -5.441406,-18.79101 -3.066002,-7.3594 -8.105719,-13.74959 -11.626953,-20.90235 -3.245787,-6.59324 -6.186892,-13.34826 -8.732422,-20.24218 -2.014961,-5.45702 -3.770798,-11.02309 -5.160157,-16.67188 -1.221033,-4.96442 -2.314282,-9.9928 -2.779296,-15.08398 -0.469353,-5.13871 -0.590136,-10.35423 0,-15.48047 0.466144,-4.04919 1.199639,-8.14888 2.779296,-11.906252 2.005743,-4.770867 4.917979,-9.213518 8.335938,-13.099609 2.729896,-3.10379 5.924778,-5.909322 9.525391,-7.939453 3.53546,-1.993399 7.569796,-3.002114 11.511719,-3.96875 2.59881,-0.637282 5.26172,-1.179649 7.9375,-1.191407 2.60555,-0.01134 5.17084,0.659038 7.74023,1.091797 1.69521,0.285506 3.34963,0.826045 5.06055,0.992188 2.95874,0.287315 5.95923,0.287315 8.91797,0 1.71092,-0.166143 3.36534,-0.706682 5.06055,-0.992188 2.56939,-0.432759 5.13468,-1.103135 7.74023,-1.091797 2.67578,0.01176 5.34064,0.554125 7.93945,1.191407 3.94193,0.966636 7.97431,1.975351 11.50977,3.96875 3.60061,2.030131 6.79745,4.835663 9.52734,7.939453 3.41796,3.886091 6.32825,8.328742 8.33399,13.099609 1.57965,3.757372 2.31315,7.857062 2.77929,11.906252 0.59014,5.12624 0.46936,10.34176 0,15.48047 -0.46501,5.09118 -1.55826,10.11956 -2.77929,15.08398 -1.38936,5.64879 -3.1452,11.21486 -5.16016,16.67188 -2.54553,6.89392 -5.48663,13.64894 -8.73242,20.24218 -3.52124,7.15276 -8.56095,13.54295 -11.62695,20.90235 -2.50788,6.01972 -4.37025,12.35803 -5.43946,18.79101 -0.45608,2.74402 -0.39843,8.33594 -0.39843,8.33594 l 3.57226,2.77734 c 0,0 -1.68502,-4.22923 -2.04687,-6.45898 -0.25478,-1.57011 -0.28208,-3.195 -0.0703,-4.77148 0.12319,-0.91705 0.28721,-1.87759 0.77149,-2.66602 0.25117,-0.40893 0.66818,-0.69533 1.05273,-0.98242 1.84825,-1.37992 3.95721,-2.37221 5.96485,-3.50781 2.13168,-1.20578 4.52115,-2.00713 6.45507,-3.50977 4.48277,-3.48306 8.09881,-8.00456 11.57813,-12.49023 1.48319,-1.91219 2.73402,-3.99844 3.92773,-6.10352 4.00394,-7.06081 7.94333,-14.22701 10.80664,-21.82227 3.32224,-8.81259 5.4954,-18.0508 7.29688,-27.29492 0.83405,-4.27983 1.48631,-8.62398 1.61523,-12.98242 0.18226,-6.16154 -0.28695,-12.35589 -1.19336,-18.45312 -0.40626,-2.73289 -1.01959,-5.44959 -1.89453,-8.070317 -1.19725,-3.586189 -2.63921,-7.128597 -4.56054,-10.384765 -1.07693,-1.825115 -2.33565,-3.578006 -3.85938,-5.050782 -5.07716,-4.907369 -10.92959,-9.156522 -17.26172,-12.28125 -3.99399,-1.970921 -8.39196,-3.117638 -12.77148,-3.927734 -2.05158,-0.379468 -4.15855,-0.478946 -6.24414,-0.421875 -2.49692,0.06833 -4.99618,0.383724 -7.4375,0.912109 -5.08013,1.099518 -9.67867,3.708988 -14.87696,4.671875 -2.72174,0.386296 -5.48022,0.475113 -8.07421,0 -5.19829,-0.962887 -9.79683,-3.572357 -14.87696,-4.671875 -2.44132,-0.528385 -4.94058,-0.843779 -7.4375,-0.912109 -0.5214,-0.01427 -1.04346,-0.01887 -1.5664,-0.01172 z"
       transform="scale(0.26458333)"
       sodipodi:nodetypes="scssssssssssssssssccssssssssssscsaascsssssssssssccssscsssssssssssssssccsss" />
    <path
       id="path934"
       style="fill:#000000;fill-opacity:1;stroke:none;stroke-width:0.999999px;stroke-linecap:butt;stroke-linejoin:miter;stroke-opacity:1"
       d="m 110.58398,127.98633 c 0,0 1.86238,7.42949 2.2461,11.22656 2.33286,23.08486 1.39032,46.43151 0.28125,69.60742 -0.22473,4.69583 -1.15896,9.33841 -1.4043,14.03321 -0.25693,4.9168 -0.8259,9.90629 -0.0703,14.77148 0.19241,1.23888 0.49491,2.51422 1.1582,3.57812 0.52507,0.8422 2.14063,2.07032 2.14063,2.07032 0,0 -0.61683,-1.15819 -0.77149,-1.78906 -0.26524,-1.08198 -0.21083,-2.22054 -0.24609,-3.33399 -0.10847,-3.425 -0.093,-6.85833 0.10547,-10.2793 0.17983,-3.0995 0.46078,-6.20114 0.98242,-9.26171 0.2564,-1.50441 0.54417,-3.01817 1.05273,-4.45704 0.32421,-0.9173 0.8286,-1.75967 1.26172,-2.63086 0.60307,-1.21302 1.13998,-2.46541 1.85938,-3.61328 1.31289,-2.09484 2.98136,-3.94614 4.45703,-5.92968 1.28305,-1.72464 1.03979,-2.10937 3.82422,-5.19141 0.37842,-0.41887 0.94592,-0.3954 1.22851,-0.35156 v 0.0351 c 0,0 0.0525,-0.01 0.0879,-0.0176 0.034,0.008 0.0859,0.0176 0.0859,0.0176 v -0.0351 c 0.28249,-0.0439 0.85192,-0.0675 1.23047,0.35156 2.78443,3.08204 2.64039,3.96293 3.92345,5.68757 3.71367,3.79693 5.73451,8.6997 7.18119,13.26538 2.34021,7.78713 1.47258,10.07503 0.65214,13.97556 -0.24534,1.08701 0.0191,2.25201 -0.2461,3.33399 -0.15465,0.63087 -0.77148,1.78906 -0.77148,1.78906 0,0 1.61361,-1.22812 2.13867,-2.07032 1.58823,-1.95766 2.97826,-6.10843 2.87408,-9.91483 -0.24534,-4.6948 -1.17761,-9.33738 -1.40234,-14.03321 -1.10908,-23.17591 -2.05357,-46.52256 0.2793,-69.60742 0.38371,-3.79707 2.24609,-11.22656 2.24609,-11.22656 0,0 -1.55107,4.49643 -2.24219,6.77148 -0.55865,1.83901 -0.77536,3.7929 -1.53906,5.55664 -0.39508,0.91242 -0.97674,1.73505 -1.55078,2.54688 -0.94062,1.33026 -1.90282,2.67105 -3.08789,3.78906 -1.89272,1.75945 -4.32578,3.36547 -6.87695,4.21094 -0.72417,0.23999 -2.05251,0.27748 -2.70313,0.28125 0,0 -0.11848,10e-4 -0.19141,0.002 -0.0735,-6e-4 -0.19336,-0.002 -0.19336,-0.002 -0.65119,-0.004 -1.97953,-0.0414 -2.70312,-0.28125 -2.55117,-0.84547 -4.98229,-2.45149 -6.875,-4.21094 -1.18508,-1.11801 -2.14727,-2.4588 -3.08789,-3.78906 -0.57404,-0.81183 -1.15766,-1.63446 -1.55274,-2.54688 -0.7637,-1.76374 -0.97845,-3.71763 -1.53711,-5.55664 -0.69111,-2.27505 -2.24414,-6.77148 -2.24414,-6.77148 z"
       transform="scale(0.26458333)"
       sodipodi:nodetypes="cssssscssssssssscccccscccsccccscssscscccscsssc" />
  </g>
</svg>
